HIERARCHY
ROOT Hips
{
  OFFSET -33.9132 29.2015 117.021
  CHANNELS 6 Xposition Yposition Zposition Zrotation Xrotation Yrotation
  JOINT LeftUpLeg
  {
    OFFSET 8.64259 1.95398 -2.38835
    CHANNELS 3 Zrotation Xrotation Yrotation
    JOINT LeftLeg
    {
      OFFSET 43.7702 0 0
      CHANNELS 3 Zrotation Xrotation Yrotation
      JOINT LeftFoot
      {
        OFFSET 40.6238 0 0
        CHANNELS 3 Zrotation Xrotation Yrotation
        JOINT LeftToeBase
        {
          OFFSET 12.7242 0 0
          CHANNELS 3 Zrotation Xrotation Yrotation
          End Site
          {
            OFFSET 0 0 0
          }
        }
      }
    }
  }
  JOINT RightUpLeg
  {
    OFFSET -8.2249 1.95398 -2.59336
    CHANNELS 3 Zrotation Xrotation Yrotation
    JOINT RightLeg
    {
      OFFSET 43.5653 0 0
      CHANNELS 3 Zrotation Xrotation Yrotation
      JOINT RightFoot
      {
        OFFSET 40.6238 0 0
        CHANNELS 3 Zrotation Xrotation Yrotation
        JOINT RightToeBase
        {
          OFFSET 12.7242 0 0
          CHANNELS 3 Zrotation Xrotation Yrotation
          End Site
          {
            OFFSET 0 0 0
          }
        }
      }
    }
  }
  JOINT Spine
  {
    OFFSET 0.165834 0.87714 6.61349
    CHANNELS 3 Zrotation Xrotation Yrotation
    JOINT Spine1
    {
      OFFSET 7.38963 1.71661e-005 0
      CHANNELS 3 Zrotation Xrotation Yrotation
      JOINT Spine2
      {
        OFFSET 11.9445 1.14441e-005 0
        CHANNELS 3 Zrotation Xrotation Yrotation
        JOINT Spine3
        {
          OFFSET 14.7254 4.19617e-005 0
          CHANNELS 3 Zrotation Xrotation Yrotation
          JOINT Spine4
          {
            OFFSET 10.9679 0 0
            CHANNELS 3 Zrotation Xrotation Yrotation
            JOINT RightShoulder
            {
              OFFSET 2.46616 -1.6653 3.69651
              CHANNELS 3 Zrotation Xrotation Yrotation
              JOINT RightArm
              {
                OFFSET 13.0012 0 0
                CHANNELS 3 Zrotation Xrotation Yrotation
                JOINT RightForeArm
                {
                  OFFSET 28.7848 1.62311e-005 0
                  CHANNELS 3 Zrotation Xrotation Yrotation
                  JOINT RightHand
                  {
                    OFFSET 26.5688 1.62095e-005 0
                    CHANNELS 3 Zrotation Xrotation Yrotation
                    End Site
                    {
                      OFFSET 0 0 0
                    }
                  }
                }
              }
            }
            JOINT LeftShoulder
            {
              OFFSET 2.38034 -1.29275 -3.7523
              CHANNELS 3 Zrotation Xrotation Yrotation
              JOINT LeftArm
              {
                OFFSET 16.3182 6.07031e-005 0
                CHANNELS 3 Zrotation Xrotation Yrotation
                JOINT LeftForeArm
                {
                  OFFSET 27.0901 0 0
                  CHANNELS 3 Zrotation Xrotation Yrotation
                  JOINT LeftHand
                  {
                    OFFSET 24.5451 1.51738e-005 0
                    CHANNELS 3 Zrotation Xrotation Yrotation
                    End Site
                    {
                      OFFSET 0 0 0
                    }
                  }
                }
              }
            }
            JOINT Neck
            {
              OFFSET 5.0226 -0.0266342 0
              CHANNELS 3 Zrotation Xrotation Yrotation
              JOINT Head
              {
                OFFSET 6.69364 2.86102e-005 0
                CHANNELS 3 Zrotation Xrotation Yrotation
                End Site
                {
                  OFFSET 0 0 0
                }
              }
            }
          }
        }
      }
    }
  }
}
MOTION
Frames:	11
Frame Time:	0.0416667
123.636 90.025 133.839 -68.8561 -49.5807 -71.1736 -173.62 45.3522 107.293 -46.7945 30.1724 -1.70399 71.0145 8.17648 1.03392 38.6486 3.03385 4.21774 167.185 41.0455 74.6677 -55.8795 -1.4123 1.64784 73.6576 -9.63863 -2.73121 25.988 -0.987479 8.42477 0.963219 9.15161 -90.0135 8.57259 1.91605 -0.148615 -3.09696 1.90764 -0.232826 -25.6431 1.87208 0.43431 -5.63044 1.8721 0.434321 86.9122 -28.711 -113.433 40.186 5.86582 26.6437 -40.7002 -28.867 -60.3094 -46.8216 5.36701 -17.6944 -90.0599 -42.174 76.8065 -7.52296 12.7035 -50.5969 24.7859 36.7493 -47.4803 40.9579 -21.0477 -49.3618 28.2587 -0.366386 -7.07272 1.33389 2.35231 0.0262811 
121.091 88.3594 131.959 -74.4968 -45.5779 -76.2793 -172.03 43.1521 110.259 -49.9406 27.8699 -1.17482 72.6656 9.67714 1.18787 40.477 3.10829 6.95142 167.414 43.2925 69.3684 -56.2515 -0.47248 1.08757 72.8332 -9.37173 -4.36388 23.6003 0.0387139 7.96728 0.738729 9.27171 -90.2523 8.33427 1.36315 -0.581279 -3.33615 1.33625 -0.640724 -25.8767 1.47483 -0.14464 -5.86409 1.47481 -0.144649 89.004 -27.8093 -109.656 33.752 12.0518 29.6942 -21.7901 -20.5236 -46.314 -53.299 6.48476 -18.2514 -90.0303 -41.0165 76.5557 -13.044 8.67898 -52.4112 24.2484 34.0676 -48.0452 34.2764 -20.3946 -56.3922 26.5738 1.6661 -7.97679 1.13462 4.58453 2.05878 
118.083 86.3325 129.944 -79.6223 -40.0441 -80.4905 -170.323 39.7184 114.186 -52.297 25.0368 -0.307142 74.4456 10.5048 -1.37317 44.7114 4.07562 11.2529 167.297 47.5894 65.7871 -57.3059 3.17938 1.43811 73.3223 -9.44906 -4.08012 20.7693 0.879309 8.76557 0.449217 9.29434 -90.4144 8.2866 0.714174 -0.861957 -3.38443 0.675563 -0.892549 -25.92 0.94021 -0.607473 -5.90731 0.94022 -0.607462 90.753 -26.2589 -106.688 23.5955 16.9781 28.7013 -11.0471 -14.9972 -30.4557 -49.3425 10.2176 -27.3791 -88.7628 -36.9609 77.6574 -18.0964 5.51551 -54.1685 24.8436 34.1615 -47.7868 33.4021 -21.0965 -59.3807 25.6621 4.62673 -8.69252 -1.169 7.59719 4.16024 
113.546 85.2235 127.406 -82.7666 -32.2026 -84.1696 -166.817 33.0284 117.184 -49.1325 21.642 -0.467642 74.2232 10.1533 -2.64662 47.0462 4.70797 14.0586 168.102 52.9228 64.7839 -58.1986 -0.583324 1.88538 71.7639 -8.74925 -5.64825 20.5589 1.09284 8.34984 0.298113 9.15096 -90.5221 8.57266 0.363819 -1.05487 -3.09867 0.317057 -1.06986 -25.6316 0.664024 -0.896781 -5.61892 0.664024 -0.896774 91.9868 -22.6072 -105.522 13.2019 20.2705 33.5375 -14.4643 -23.5269 -28.8935 -43.4552 9.65793 -29.3954 -87.6628 -33.9622 78.8495 -18.4751 3.40307 -51.9119 27.0388 31.957 -50.4468 32.782 -21.0865 -60.2891 23.2112 9.93415 -3.65172 -0.871612 10.8207 3.56902 
107.066 85.8997 123.878 -84.9754 -24.8277 -88.9299 -164.332 21.7955 117.975 -38.6751 18.5579 -0.155978 59.922 0.851991 -5.33772 57.8787 10.7335 13.5624 167.02 55.492 66.2053 -58.292 -7.57264 2.84557 70.3165 -7.46205 -4.93979 23.8134 0.316639 6.72629 0.0263683 8.99393 -90.3454 8.88521 -0.101099 -0.676729 -2.78589 -0.1308 -0.671627 -25.3197 0.106944 -0.675831 -5.30701 0.106953 -0.675834 91.4187 -20.3791 -107.793 7.23691 22.8003 44.0368 -22.8097 -25.9696 -41.5745 -41.5837 8.67875 -28.1266 -86.6802 -32.0612 80.1955 -17.1262 0.902184 -44.664 25.2542 28.7109 -50.138 29.7204 -20.6493 -64.2165 20.4055 15.7832 2.549 -1.90807 14.4557 3.91943 
98.8856 87.3232 119.285 -84.8545 -17.2444 -93.171 -165.747 7.19058 116.061 -24.1199 19.4819 2.96375 44.4169 -7.65362 -4.42293 55.4935 10.2596 9.38499 163.616 55.5648 71.1988 -58.3621 -11.6498 4.44708 65.9705 -3.458 -0.860867 27.1958 -1.16144 7.31786 -0.124275 8.57859 -90.0924 9.71611 -0.289493 -0.15945 -1.95482 -0.29623 -0.146558 -24.4901 -0.228192 -0.239088 -4.47741 -0.22818 -0.239085 91.6209 -20.131 -107.442 5.9697 24.8222 46.6393 -32.4043 -27.5383 -52.8813 -42.438 8.59435 -27.4069 -86.2895 -34.3043 81.4397 -9.49479 3.68396 -32.2758 22.7993 23.9891 -49.9531 28.0237 -19.6445 -64.7154 16.4405 21.1849 12.0704 -4.05015 17.2639 1.2986 
90.5677 87.938 113.724 -82.0099 -9.60862 -94.2897 -171.481 1.77239 112.278 -28.1607 23.6278 8.4894 51.2644 -3.17462 4.49683 14.8672 -7.27228 0.473838 160.51 53.0812 80.121 -60.1089 -10.7365 5.98501 70.1329 -6.55358 -1.6877 25.8787 -0.433542 6.4452 0.149731 8.13199 -90.2127 10.6103 0.200452 -0.439358 -1.06065 0.18093 -0.447765 -23.5956 0.323253 -0.358799 -3.58291 0.323218 -0.358814 91.0051 -21.7942 -108.079 7.137 25.516 41.4094 -32.0742 -26.0132 -53.9959 -43.6314 8.75471 -27.1378 -85.913 -35.8686 82.4494 -7.91055 7.67247 -23.3314 21.2373 22.1535 -48.8282 28.3228 -18.6513 -61.7351 13.4676 25.1578 19.4499 -4.55617 19.7831 0.49572 
84.1752 86.3801 107.879 -80.8139 -0.711181 -96.0611 -174.349 3.71135 107.956 -42.7868 18.0976 8.74395 58.7558 2.27146 6.78969 20.4413 -1.85058 -4.6907 162.422 52.3871 86.9234 -67.3657 -9.79823 4.04729 78.386 -12.7255 -3.77207 27.2143 -1.06488 6.90758 0.699302 8.13719 -90.2802 10.6036 1.26391 -0.670058 -1.067 1.23322 -0.725046 -23.6068 1.40687 -0.259148 -3.59413 1.40689 -0.259149 89.3459 -23.1846 -111.096 11.2456 23.9179 27.8016 -24.5264 -25.2778 -44.9138 -45.3561 9.02819 -26.8598 -86.3777 -41.795 82.7793 -6.71785 11.5347 -13.3005 20.6518 21.7934 -48.2585 31.9423 -19.664 -58.6612 12.2763 28.0314 23.7054 -2.7159 21.8901 -0.108885 
77.9612 85.1674 101.656 -80.9546 7.45329 -95.1704 -176.032 11.2178 105.764 -61.9658 17.5251 7.49694 65.6783 6.67529 8.89368 27.3142 0.226709 -2.07865 163.461 47.1177 93.8216 -70.5544 -8.67151 3.34931 85.4916 -17.6314 -2.23463 27.3514 -1.26771 7.51167 1.393 8.46246 -90.458 9.96238 2.56813 -1.11919 -1.70661 2.51642 -1.23118 -24.2616 2.78569 -0.295078 -4.24899 2.78569 -0.295082 87.7591 -23.5445 -114.343 16.1917 21.8163 15.4851 -18.6474 -20.2949 -41.0136 -42.7377 9.36778 -29.1825 -87.1685 -48.5698 82.7304 -10.1775 6.84195 -1.88445 17.9171 21.6634 -47.0016 34.2029 -18.2247 -52.0791 13.8647 30.5176 25.4877 -3.73872 23.6125 0.998455 
71.5066 84.7526 95.5237 -79.7284 11.5173 -96.46 -177.854 24.6056 101.25 -74.552 8.39801 5.49271 71.6546 10.5949 9.29213 25.2525 -0.27426 -2.94977 163.128 41.1438 96.1328 -70.2001 -10.3121 3.73072 91.078 -22.5179 -2.61081 27.5893 -1.48606 8.03001 1.79711 8.558 -90.3298 9.77433 3.43304 -0.927045 -1.89251 3.38891 -1.07741 -24.4643 3.55273 0.148888 -4.45165 3.55274 0.148879 86.7845 -24.5245 -115.872 19.6004 20.5819 4.27644 -19.1953 -18.0339 -45.327 -42.2519 9.80016 -30.5943 -86.0216 -50.3456 84.7491 -18.1139 -1.90993 9.0937 14.3079 25.0028 -40.756 34.2983 -16.4555 -47.6199 14.5704 31.9275 27.2668 -2.42138 24.4372 0.195124 
64.801 84.2841 89.3816 -79.4153 13.5138 -98.1929 -178.636 39.2677 95.1214 -81.2672 2.79728 4.26249 75.7328 12.5849 8.28959 23.5346 -0.402946 -4.25343 163.785 33.0227 96.0953 -67.688 -9.21907 4.25158 97.9026 -26.8814 -0.404531 26.5758 -1.06902 7.88455 2.3157 8.59869 -90.1702 9.69281 4.53959 -0.693331 -1.97053 4.50467 -0.892859 -24.5684 4.5376 0.705943 -4.5558 4.53761 0.705945 87.1039 -22.4825 -116.34 21.1335 20.7014 -1.65247 -27.7588 -19.179 -56.8356 -38.6289 10.1735 -34.1103 -84.9364 -51.4499 86.5215 -19.4464 -7.47891 22.7042 15.5657 25.086 -42.1887 34.3351 -14.9678 -43.6956 12.3049 31.0822 30.1917 0.854343 23.389 -2.1589 
